<svg width="12" height="12" viewBox="0 0 12 12" fill="none" xmlns="http://www.w3.org/2000/svg">
<g opacity="0.5">
<path d="M10.8301 5.54004C11.01 5.71999 11.1249 5.97509 11.125 6.25C11.125 6.52494 11.015 6.77509 10.8301 6.95508L7.33008 10.4551C7.15008 10.6401 6.9 10.75 6.625 10.75C6.35 10.75 6.09992 10.64 5.91992 10.46L4.81934 9.35938L9.73438 4.44434L10.8301 5.54004ZM5.625 0.75C5.89997 0.75 6.15008 0.860077 6.33008 1.04004L7.08301 1.79297L2.16797 6.70801L1.41992 5.95996C1.23503 5.77498 1.125 5.52491 1.125 5.25V1.75C1.12513 1.20011 1.57508 0.75 2.125 0.75H5.625ZM2.875 1.75C2.46008 1.75 2.12513 2.08511 2.125 2.5C2.125 2.915 2.46 3.25 2.875 3.25C3.29 3.25 3.625 2.915 3.625 2.5C3.62487 2.08511 3.28992 1.75 2.875 1.75Z" fill="#474747"/>
<line x1="9.65533" y1="1.78057" x2="2.15533" y2="9.28057" stroke="#474747" stroke-width="1.5"/>
</g>
</svg>
