<svg width="24" height="24" viewBox="0 0 24 24" fill="none" xmlns="http://www.w3.org/2000/svg">
<path fill-rule="evenodd" clip-rule="evenodd" d="M17.5 3C16.9921 2.99989 16.4902 3.11034 16.0293 3.32366C15.5683 3.53698 15.1593 3.84807 14.8307 4.23532C14.502 4.62258 14.2616 5.07673 14.1261 5.56623C13.9906 6.05574 13.9633 6.56887 14.046 7.07L8.89498 9.447C8.39707 8.97987 7.77341 8.66856 7.1008 8.55141C6.42819 8.43426 5.736 8.51639 5.10948 8.78768C4.48296 9.05897 3.94947 9.50758 3.5747 10.0783C3.19993 10.6489 3.00024 11.3168 3.00024 11.9995C3.00024 12.6822 3.19993 13.3501 3.5747 13.9207C3.94947 14.4914 4.48296 14.94 5.10948 15.2113C5.736 15.4826 6.42819 15.5647 7.1008 15.4476C7.77341 15.3304 8.39707 15.0191 8.89498 14.552L14.046 16.93C13.9087 17.7594 14.0746 18.6105 14.5133 19.3277C14.9519 20.0448 15.6341 20.5802 16.435 20.8357C17.2359 21.0913 18.102 21.0501 18.875 20.7196C19.648 20.3891 20.2762 19.7914 20.6448 19.0358C21.0133 18.2802 21.0976 17.4172 20.8822 16.6045C20.6667 15.7919 20.166 15.084 19.4716 14.6102C18.7771 14.1364 17.9353 13.9284 17.1001 14.0242C16.2649 14.12 15.4921 14.5132 14.923 15.132L9.90398 12.816C10.0322 12.2796 10.0322 11.7204 9.90398 11.184L14.922 8.868C15.3156 9.29643 15.8098 9.61998 16.36 9.80937C16.9101 9.99876 17.4988 10.048 18.0727 9.95271C18.6467 9.85739 19.1878 9.62049 19.6472 9.26344C20.1065 8.9064 20.4697 8.44047 20.7037 7.90779C20.9377 7.37512 21.0352 6.79251 20.9875 6.21266C20.9397 5.63281 20.7482 5.07401 20.4301 4.58682C20.1121 4.09962 19.6776 3.69939 19.166 3.42233C18.6544 3.14527 18.0818 3.00011 17.5 3ZM16 6.5C16 6.10218 16.158 5.72064 16.4393 5.43934C16.7206 5.15804 17.1022 5 17.5 5C17.8978 5 18.2793 5.15804 18.5606 5.43934C18.8419 5.72064 19 6.10218 19 6.5C19 6.89782 18.8419 7.27936 18.5606 7.56066C18.2793 7.84196 17.8978 8 17.5 8C17.1022 8 16.7206 7.84196 16.4393 7.56066C16.158 7.27936 16 6.89782 16 6.5ZM6.49998 10.5C6.10215 10.5 5.72062 10.658 5.43932 10.9393C5.15801 11.2206 4.99998 11.6022 4.99998 12C4.99998 12.3978 5.15801 12.7794 5.43932 13.0607C5.72062 13.342 6.10215 13.5 6.49998 13.5C6.8978 13.5 7.27933 13.342 7.56064 13.0607C7.84194 12.7794 7.99998 12.3978 7.99998 12C7.99998 11.6022 7.84194 11.2206 7.56064 10.9393C7.27933 10.658 6.8978 10.5 6.49998 10.5ZM16 17.5C16 17.1022 16.158 16.7206 16.4393 16.4393C16.7206 16.158 17.1022 16 17.5 16C17.8978 16 18.2793 16.158 18.5606 16.4393C18.8419 16.7206 19 17.1022 19 17.5C19 17.8978 18.8419 18.2794 18.5606 18.5607C18.2793 18.842 17.8978 19 17.5 19C17.1022 19 16.7206 18.842 16.4393 18.5607C16.158 18.2794 16 17.8978 16 17.5Z" fill="#0C0B0B"/>
</svg>
