<svg width="24" height="24" viewBox="0 0 24 24" fill="none" xmlns="http://www.w3.org/2000/svg">
<path fill-rule="evenodd" clip-rule="evenodd" d="M18.895 15.22C18.9512 15.2908 18.9863 15.376 18.9963 15.4658C19.0063 15.5556 18.9908 15.6465 18.9515 15.7279C18.9123 15.8093 18.8509 15.878 18.7744 15.9261C18.6979 15.9742 18.6094 15.9999 18.519 16H5.48101C5.39047 16.0002 5.3017 15.9749 5.22496 15.9268C5.14822 15.8788 5.08664 15.81 5.04732 15.7284C5.00801 15.6469 4.99256 15.5559 5.00277 15.4659C5.01297 15.3759 5.04842 15.2907 5.10501 15.22L5.90501 14.22C6.61371 13.3337 6.99986 12.2328 7.00001 11.098V8.5C7.00001 7.30653 7.47411 6.16193 8.31803 5.31802C9.16194 4.47411 10.3065 4 11.5 4H12.5C13.6935 4 14.8381 4.47411 15.682 5.31802C16.5259 6.16193 17 7.30653 17 8.5V11.097C17 12.2326 17.3865 13.3343 18.096 14.221L18.895 15.219V15.22ZM14 18H10C10 18.5304 10.2107 19.0391 10.5858 19.4142C10.9609 19.7893 11.4696 20 12 20C12.5304 20 13.0391 19.7893 13.4142 19.4142C13.7893 19.0391 14 18.5304 14 18ZM11.5 2C9.7761 2 8.1228 2.68482 6.90381 3.90381C5.68483 5.12279 5.00001 6.77609 5.00001 8.5V11.097C5.00001 11.778 4.76801 12.44 4.34301 12.971L3.54301 13.971C3.25113 14.3359 3.06829 14.7759 3.01558 15.2403C2.96287 15.7046 3.04243 16.1744 3.24508 16.5955C3.44773 17.0166 3.76524 17.3718 4.161 17.6203C4.55677 17.8688 5.01469 18.0004 5.48201 18H8.00001C8.00001 19.0609 8.42144 20.0783 9.17158 20.8284C9.92173 21.5786 10.9391 22 12 22C13.0609 22 14.0783 21.5786 14.8284 20.8284C15.5786 20.0783 16 19.0609 16 18H18.52C18.9872 18 19.445 17.868 19.8405 17.6193C20.236 17.3705 20.5532 17.0151 20.7555 16.5939C20.9578 16.1727 21.037 15.703 20.9841 15.2388C20.9311 14.7745 20.748 14.3347 20.456 13.97L19.657 12.971C19.2316 12.439 18.9999 11.7781 19 11.097V8.5C19 7.64641 18.8319 6.80117 18.5052 6.01256C18.1786 5.22394 17.6998 4.50739 17.0962 3.90381C16.4926 3.30023 15.7761 2.82144 14.9875 2.49478C14.1988 2.16813 13.3536 2 12.5 2H11.5Z" fill="#0C0B0B"/>
</svg>
