<svg width="24" height="24" viewBox="0 0 24 24" fill="none" xmlns="http://www.w3.org/2000/svg">
<path d="M6.79303 14.957C6.60556 14.7695 6.50024 14.5152 6.50024 14.25C6.50024 13.9849 6.60556 13.7306 6.79303 13.543L11.293 9.04303C11.4806 8.85556 11.7349 8.75024 12 8.75024C12.2652 8.75024 12.5195 8.85556 12.707 9.04303L17.207 13.543C17.3892 13.7316 17.49 13.9842 17.4877 14.2464C17.4854 14.5086 17.3803 14.7594 17.1948 14.9448C17.0094 15.1303 16.7586 15.2354 16.4964 15.2377C16.2342 15.24 15.9816 15.1392 15.793 14.957L12 11.164L8.20703 14.957C8.0195 15.1445 7.76519 15.2498 7.50003 15.2498C7.23487 15.2498 6.98056 15.1445 6.79303 14.957Z" fill="#0C0B0B"/>
</svg>
