<svg width="24" height="24" viewBox="0 0 24 24" fill="none" xmlns="http://www.w3.org/2000/svg">
<path d="M17.2069 9.04303C17.3944 9.23056 17.4997 9.48487 17.4997 9.75003C17.4997 10.0152 17.3944 10.2695 17.2069 10.457L12.7069 14.957C12.5194 15.1445 12.2651 15.2498 11.9999 15.2498C11.7348 15.2498 11.4804 15.1445 11.2929 14.957L6.79292 10.457C6.61076 10.2684 6.50997 10.0158 6.51224 9.75363C6.51452 9.49143 6.61969 9.24062 6.8051 9.05521C6.99051 8.8698 7.24132 8.76464 7.50352 8.76236C7.76571 8.76008 8.01832 8.86087 8.20692 9.04303L11.9999 12.836L15.7929 9.04303C15.9804 8.85556 16.2348 8.75024 16.4999 8.75024C16.7651 8.75024 17.0194 8.85556 17.2069 9.04303Z" fill="#0C0B0B"/>
</svg>
