<svg width="24" height="24" viewBox="0 0 24 24" fill="none" xmlns="http://www.w3.org/2000/svg">
<path d="M9.04303 6.79303C9.23056 6.60556 9.48487 6.50024 9.75003 6.50024C10.0152 6.50024 10.2695 6.60556 10.457 6.79303L14.957 11.293C15.1445 11.4806 15.2498 11.7349 15.2498 12C15.2498 12.2652 15.1445 12.5195 14.957 12.707L10.457 17.207C10.2684 17.3892 10.0158 17.49 9.75363 17.4877C9.49143 17.4854 9.24062 17.3803 9.05521 17.1948C8.8698 17.0094 8.76464 16.7586 8.76236 16.4964C8.76008 16.2342 8.86087 15.9816 9.04303 15.793L12.836 12L9.04303 8.20703C8.85556 8.0195 8.75024 7.76519 8.75024 7.50003C8.75024 7.23487 8.85556 6.98056 9.04303 6.79303Z" fill="#0C0B0B"/>
</svg>
