<svg width="24" height="24" viewBox="0 0 24 24" fill="none" xmlns="http://www.w3.org/2000/svg">
<g clip-path="url(#clip0_1336_3924)">
<path d="M11.3692 0.317501C11.6852 -0.105834 12.3148 -0.105834 12.6308 0.317501L14.3169 2.57627C14.5267 2.85737 14.8942 2.96633 15.2213 2.84438L17.8493 1.86449C18.3418 1.68084 18.8715 2.02448 18.9106 2.5531L19.1194 5.3736C19.1454 5.7246 19.3963 6.01689 19.7367 6.09282L22.4723 6.70291C22.9849 6.81725 23.2465 7.39543 22.9963 7.86149L21.6616 10.3482C21.4955 10.6577 21.55 11.0405 21.7958 11.2902L23.7704 13.2966C24.1404 13.6726 24.0508 14.3018 23.5908 14.5573L21.1363 15.9208C20.8309 16.0905 20.6717 16.4423 20.7448 16.7864L21.3315 19.5521C21.4414 20.0704 21.0291 20.5508 20.5053 20.5147L17.7103 20.322C17.3625 20.298 17.0402 20.5071 16.9173 20.8365L15.9299 23.4833C15.7448 23.9794 15.1407 24.1585 14.7194 23.8422L12.4713 22.1545C12.1915 21.9444 11.8085 21.9444 11.5287 22.1545L9.2806 23.8422C8.85926 24.1585 8.25519 23.9794 8.07012 23.4833L7.08267 20.8365C6.95978 20.5071 6.63752 20.298 6.28969 20.322L3.49471 20.5147C2.97088 20.5508 2.55859 20.0704 2.66855 19.5521L3.25525 16.7864C3.32826 16.4423 3.16913 16.0905 2.86367 15.9208L0.409187 14.5573C-0.0508279 14.3018 -0.140426 13.6726 0.229646 13.2966L2.20422 11.2902C2.44996 11.0405 2.50447 10.6577 2.33837 10.3482L1.00367 7.86149C0.753521 7.39543 1.01506 6.81725 1.52775 6.70291L4.26329 6.09282C4.60372 6.01689 4.85458 5.7246 4.88057 5.3736L5.08941 2.5531C5.12855 2.02448 5.65818 1.68084 6.15071 1.86449L8.7787 2.84438C9.10575 2.96633 9.47331 2.85737 9.68314 2.57627L11.3692 0.317501Z" fill="#FA6400"/>
<path d="M16.0775 8.53791L8.44633 16.1684C8.38718 16.2276 8.31695 16.2745 8.23966 16.3065C8.16237 16.3385 8.07954 16.355 7.99588 16.355C7.91222 16.355 7.82938 16.3385 7.7521 16.3065C7.67481 16.2745 7.60458 16.2276 7.54543 16.1684C7.48627 16.1093 7.43935 16.039 7.40733 15.9618C7.37532 15.8845 7.35884 15.8016 7.35884 15.718C7.35884 15.6343 7.37532 15.5515 7.40733 15.4742C7.43935 15.3969 7.48627 15.3267 7.54543 15.2676L15.1766 7.63709C15.2961 7.51763 15.4581 7.45052 15.6271 7.45052C15.796 7.45052 15.9581 7.51763 16.0775 7.63709C16.197 7.75654 16.2641 7.91856 16.2641 8.0875C16.2641 8.25644 16.197 8.41845 16.0775 8.53791ZM7.55762 10.6469C7.21101 10.3 6.99543 9.84362 6.94761 9.35558C6.89978 8.86755 7.02267 8.37803 7.29533 7.97043C7.568 7.56284 7.97356 7.26238 8.44293 7.12027C8.9123 6.97815 9.41643 7.00316 9.86943 7.19103C10.3224 7.37891 10.6963 7.71803 10.9272 8.15061C11.1582 8.58319 11.232 9.08247 11.1361 9.56337C11.0402 10.0443 10.7805 10.4771 10.4013 10.788C10.022 11.0989 9.54671 11.2687 9.0563 11.2685C8.77779 11.2691 8.50191 11.2146 8.24466 11.1079C7.9874 11.0012 7.75387 10.8445 7.55762 10.6469ZM8.20839 9.14888C8.2083 9.34503 8.27623 9.53515 8.40061 9.68684C8.525 9.83852 8.69813 9.94239 8.89052 9.98074C9.08291 10.0191 9.28264 9.98955 9.45569 9.89716C9.62874 9.80476 9.76439 9.65523 9.83954 9.47403C9.91468 9.29284 9.92466 9.0912 9.86779 8.90347C9.81091 8.71574 9.6907 8.55353 9.52763 8.44449C9.36455 8.33546 9.16871 8.28633 8.97348 8.30549C8.77824 8.32465 8.59569 8.41091 8.45693 8.54957C8.37788 8.62803 8.3152 8.72141 8.27253 8.82429C8.22986 8.92717 8.20806 9.0375 8.20839 9.14888ZM16.6875 14.6598C16.6875 15.1501 16.5174 15.6253 16.2063 16.0044C15.8952 16.3834 15.4623 16.6429 14.9813 16.7386C14.5003 16.8342 14.001 16.7602 13.5685 16.529C13.136 16.2979 12.797 15.924 12.6093 15.471C12.4216 15.0179 12.3968 14.5138 12.5392 14.0446C12.6815 13.5753 12.9821 13.1699 13.3898 12.8975C13.7976 12.625 14.2872 12.5023 14.7752 12.5503C15.2633 12.5983 15.7196 12.814 16.0664 13.1607C16.264 13.357 16.4206 13.5907 16.5273 13.848C16.6339 14.1053 16.6883 14.3813 16.6875 14.6598ZM15.4156 14.6598C15.416 14.5483 15.3943 14.4379 15.3516 14.3349C15.3089 14.2319 15.2462 14.1385 15.1671 14.0599C15.0283 13.9213 14.8458 13.8351 14.6506 13.8159C14.4554 13.7967 14.2596 13.8458 14.0965 13.9548C13.9334 14.0638 13.8132 14.226 13.7563 14.4137C13.6994 14.6014 13.7093 14.803 13.7844 14.9842C13.8595 15.1654 13.995 15.3149 14.168 15.4074C14.341 15.4998 14.5407 15.5295 14.7331 15.4912C14.9255 15.4529 15.0987 15.3492 15.2231 15.1976C15.3476 15.046 15.4156 14.8559 15.4156 14.6598Z" fill="white"/>
</g>
<defs>
<clipPath id="clip0_1336_3924">
<rect width="24" height="24" fill="white"/>
</clipPath>
</defs>
</svg>
