<svg width="24" height="24" viewBox="0 0 24 24" fill="none" xmlns="http://www.w3.org/2000/svg">
<path d="M14.957 17.207C14.7695 17.3944 14.5152 17.4997 14.25 17.4997C13.9849 17.4997 13.7306 17.3944 13.543 17.207L9.04303 12.707C8.85556 12.5194 8.75024 12.2651 8.75024 12C8.75024 11.7348 8.85556 11.4805 9.04303 11.293L13.543 6.79296C13.6353 6.69745 13.7456 6.62127 13.8676 6.56886C13.9896 6.51645 14.1209 6.48886 14.2536 6.48771C14.3864 6.48655 14.5181 6.51186 14.641 6.56214C14.7639 6.61242 14.8755 6.68667 14.9694 6.78056C15.0633 6.87446 15.1376 6.98611 15.1879 7.10901C15.2381 7.2319 15.2634 7.36358 15.2623 7.49636C15.2611 7.62914 15.2335 7.76036 15.1811 7.88236C15.1287 8.00437 15.0525 8.11471 14.957 8.20696L11.164 12L14.957 15.793C15.1445 15.9805 15.2498 16.2348 15.2498 16.5C15.2498 16.7651 15.1445 17.0194 14.957 17.207Z" fill="#0C0B0B"/>
</svg>
